<svg width="49" height="70" viewBox="0 0 49 70" fill="none" xmlns="http://www.w3.org/2000/svg">
<g clip-path="url(#clip0_373_2992)">
<path d="M27.3885 9.38499C26.5907 10.2525 24.5004 11.9611 24.5004 11.9611C24.5004 11.9611 22.4101 10.2533 21.6123 9.38499C21.0409 8.76324 20.6518 7.97104 20.4942 7.10857C20.3365 6.2461 20.4173 5.35211 20.7265 4.53966C21.0356 3.72721 21.5592 3.03278 22.2309 2.54421C22.9027 2.05564 23.6925 1.79486 24.5004 1.79486C25.3083 1.79486 26.0981 2.05564 26.7699 2.54421C27.4416 3.03278 27.9652 3.72721 28.2743 4.53966C28.5835 5.35211 28.6643 6.2461 28.5066 7.10857C28.349 7.97104 27.9598 8.76324 27.3885 9.38499V9.38499ZM24.5004 11.9611L1.38892 25.9557C1.38892 59.9027 24.5586 67.3077 24.5586 67.3077C24.5586 67.3077 47.6111 59.9051 47.6111 25.9557L24.5004 11.9611Z" stroke="#2C5E46" stroke-width="2" stroke-miterlimit="10"/>
<path d="M21.9314 44.5199C21.9314 46.2932 21.25 47.6652 19.8874 48.6359C18.5247 49.6252 17.0314 50.1199 15.4074 50.1199C13.7834 50.1199 12.1314 49.8492 10.4514 49.3079L11.0114 47.5159C12.5607 48.2626 13.8674 48.7386 14.9314 48.9439C16.126 48.9439 17.134 48.5706 17.9554 47.8239C18.7954 47.0772 19.2154 46.0786 19.2154 44.8279C19.2154 43.5772 18.73 42.5506 17.7594 41.7479C16.7887 40.9266 15.2767 40.5159 13.2234 40.5159L13.1954 39.7599C16.686 39.5359 18.4314 38.1919 18.4314 35.7279C18.4314 34.1412 17.6007 33.0399 15.9394 32.4239C14.782 32.4239 13.3447 32.6852 11.6274 33.2079L11.0674 31.4439C12.374 31.0519 13.6247 30.8559 14.8194 30.8559C16.63 30.8559 18.1047 31.2759 19.2434 32.1159C20.4007 32.9559 20.9794 34.1132 20.9794 35.5879C20.9794 36.5399 20.6247 37.4079 19.9154 38.1919C19.2247 38.9572 18.282 39.5452 17.0874 39.9559C18.6554 40.2732 19.85 40.8519 20.6714 41.6919C21.5114 42.5319 21.9314 43.4746 21.9314 44.5199ZM31.4234 30.9399C33.066 30.9399 34.4194 31.6212 35.4834 32.9839C36.566 34.3279 37.1074 36.2226 37.1074 38.6679C37.1074 40.2359 36.8927 41.6172 36.4634 42.8119C36.034 43.9879 35.474 44.8932 34.7834 45.5279C33.4394 46.7972 31.946 47.4319 30.3034 47.4319C28.6607 47.4319 27.298 46.7319 26.2154 45.3319C25.1514 43.9319 24.6194 42.0092 24.6194 39.5639C24.6194 37.9959 24.834 36.6332 25.2634 35.4759C25.6927 34.2999 26.2527 33.3946 26.9434 32.7599C28.2874 31.5466 29.7807 30.9399 31.4234 30.9399ZM34.5034 39.1719C34.5034 37.2679 34.1394 35.6626 33.4114 34.3559C32.6834 33.0306 31.7594 32.3679 30.6394 32.3679C29.538 32.3679 28.67 32.9652 28.0354 34.1599C27.4007 35.3546 27.0834 36.9692 27.0834 39.0039C27.0834 41.0386 27.438 42.7372 28.1474 44.0999C28.8754 45.4439 29.7527 46.1159 30.7794 46.1159C33.262 46.1159 34.5034 43.8012 34.5034 39.1719Z" fill="#2C5E46"/>
</g>
<defs>
<clipPath id="clip0_373_2992">
<rect width="48" height="70" fill="white" transform="translate(0.5)"/>
</clipPath>
</defs>
</svg>
