<svg width="30" height="44" viewBox="0 0 30 44" fill="none" xmlns="http://www.w3.org/2000/svg">
<path fill-rule="evenodd" clip-rule="evenodd" d="M2.92683 14.9152V9.69491C2.92683 9.28306 3.25443 8.94916 3.65854 8.94916H5.85364V2.23729C5.85364 1.82542 6.18123 1.49152 6.58537 1.49152H15.3658C15.77 1.49152 16.0976 1.82542 16.0976 2.23729V8.94916H18.2927C18.6968 8.94916 19.0244 9.28306 19.0244 9.69491V14.9152H21.2195C21.6236 14.9152 21.9512 15.2491 21.9512 15.661V43.2543C21.9512 43.6661 21.6236 44 21.2195 44H0.731705C0.327597 44 0 43.6661 0 43.2543V15.661C0 15.2491 0.327597 14.9152 0.731705 14.9152H2.92683ZM7.31705 2.98305V8.94916H14.6342V2.98305H7.31705ZM4.39024 10.4407V14.9152H17.561V10.4407H4.39024ZM1.46342 42.5085H20.4878V16.4068H1.46342V42.5085ZM28.9024 2.23729C28.2963 2.23729 27.8049 1.73645 27.8049 1.11865C27.8049 0.500834 28.2963 0 28.9024 0C29.5086 0 30 0.500834 30 1.11865C30 1.73645 29.5086 2.23729 28.9024 2.23729ZM28.9024 7.45762C28.2963 7.45762 27.8049 6.95679 27.8049 6.33897C27.8049 5.72116 28.2963 5.22034 28.9024 5.22034C29.5086 5.22034 30 5.72116 30 6.33897C30 6.95679 29.5086 7.45762 28.9024 7.45762ZM28.9024 12.6779C28.2963 12.6779 27.8049 12.1771 27.8049 11.5593C27.8049 10.9415 28.2963 10.4407 28.9024 10.4407C29.5086 10.4407 30 10.9415 30 11.5593C30 12.1771 29.5086 12.6779 28.9024 12.6779ZM24.5122 9.69491C23.906 9.69491 23.4146 9.19407 23.4146 8.57626C23.4146 7.95845 23.906 7.45762 24.5122 7.45762C25.1184 7.45762 25.6098 7.95845 25.6098 8.57626C25.6098 9.19407 25.1184 9.69491 24.5122 9.69491ZM20.122 6.71187C19.5158 6.71187 19.0244 6.21104 19.0244 5.59323C19.0244 4.97541 19.5158 4.47457 20.122 4.47457C20.7281 4.47457 21.2195 4.97541 21.2195 5.59323C21.2195 6.21104 20.7281 6.71187 20.122 6.71187ZM24.5122 4.47457C23.906 4.47457 23.4146 3.97374 23.4146 3.35594C23.4146 2.73812 23.906 2.23729 24.5122 2.23729C25.1184 2.23729 25.6098 2.73812 25.6098 3.35594C25.6098 3.97374 25.1184 4.47457 24.5122 4.47457Z" fill="#2C5E46"/>
</svg>
