<svg width="87" height="58" viewBox="0 0 87 58" fill="none" xmlns="http://www.w3.org/2000/svg">
<path d="M33.3941 57.1135C36.2439 57.1135 38.5541 54.839 38.5541 52.0332C38.5541 49.2274 36.2439 46.9529 33.3941 46.9529C30.5443 46.9529 28.2341 49.2274 28.2341 52.0332C28.2341 54.839 30.5443 57.1135 33.3941 57.1135Z" stroke="#2C5E46" stroke-width="2" stroke-miterlimit="10" stroke-linecap="round" stroke-linejoin="round"/>
<path d="M72.9542 57.1135C75.804 57.1135 78.1142 54.839 78.1142 52.0332C78.1142 49.2274 75.804 46.9529 72.9542 46.9529C70.1044 46.9529 67.7942 49.2274 67.7942 52.0332C67.7942 54.839 70.1044 57.1135 72.9542 57.1135Z" stroke="#2C5E46" stroke-width="2" stroke-miterlimit="10" stroke-linecap="round" stroke-linejoin="round"/>
<path d="M28.88 49.4482H21.484V42.9285" stroke="#2C5E46" stroke-width="2" stroke-miterlimit="10" stroke-linecap="round" stroke-linejoin="round"/>
<path d="M68.526 49.4482H37.996" stroke="#2C5E46" stroke-width="2" stroke-miterlimit="10" stroke-linecap="round" stroke-linejoin="round"/>
<path d="M64.5699 25.4015H74.5459C76.0939 25.4015 77.5559 26.0788 78.5879 27.1796L84.2639 33.4453C85.1239 34.3766 85.6399 35.6467 85.6399 37.0015V44.1139C85.6399 47.0774 83.2319 49.4482 80.2219 49.4482H77.4699" stroke="#2C5E46" stroke-width="2" stroke-miterlimit="10" stroke-linecap="round" stroke-linejoin="round"/>
<path d="M63.796 49.5329C63.28 49.5329 62.936 49.1942 62.936 48.6861V17.019H21.828V23.708C21.828 24.2161 21.484 24.5548 20.968 24.5548C20.452 24.5548 20.108 24.2161 20.108 23.708V16.1723C20.108 15.6642 20.452 15.3256 20.968 15.3256H63.882C64.398 15.3256 64.742 15.6642 64.742 16.1723V48.6015C64.656 49.1095 64.312 49.5329 63.796 49.5329ZM23.892 39.2876H5.66C5.144 39.2876 4.8 38.9489 4.8 38.4409C4.8 37.9329 5.144 37.5942 5.66 37.5942H23.806C24.322 37.5942 24.666 37.9329 24.666 38.4409C24.666 38.9489 24.322 39.2876 23.892 39.2876ZM19.506 34.546H1.36C0.844 34.546 0.5 34.2073 0.5 33.6993C0.5 33.1913 0.844 32.8526 1.36 32.8526H19.506C20.022 32.8526 20.366 33.1913 20.366 33.6993C20.366 34.2073 20.022 34.546 19.506 34.546ZM23.892 29.7197H5.66C5.144 29.7197 4.8 29.381 4.8 28.873C4.8 28.365 5.144 28.0263 5.66 28.0263H23.806C24.322 28.0263 24.666 28.365 24.666 28.873C24.666 29.381 24.322 29.7197 23.892 29.7197Z" fill="#2C5E46"/>
<path d="M39.544 14.9869C42.898 16.4263 22.086 14.6482 21.57 6.85841C21.312 3.47154 24.666 0.592712 27.848 0.762055C33.352 1.18541 35.846 13.3781 39.544 14.9869Z" fill="#F3F4F3" stroke="#2C5E46" stroke-width="2" stroke-miterlimit="10" stroke-linecap="round" stroke-linejoin="round"/>
<path d="M40.49 14.9869C37.136 16.4263 57.948 14.6482 58.464 6.85841C58.722 3.47154 55.368 0.592712 52.186 0.762055C46.682 1.18541 44.188 13.3781 40.49 14.9869Z" fill="#F3F4F3" stroke="#2C5E46" stroke-width="2" stroke-miterlimit="10" stroke-linecap="round" stroke-linejoin="round"/>
<path d="M31.03 27.5183C33.008 27.5183 36.018 26.5869 37.824 20.9139C38.426 19.1358 39.458 16.2569 41.006 15.1562" stroke="#2C5E46" stroke-width="2" stroke-miterlimit="10" stroke-linecap="round" stroke-linejoin="round"/>
</svg>
