<svg width="22" height="21" viewBox="0 0 22 21" fill="none" xmlns="http://www.w3.org/2000/svg">
<g clip-path="url(#clip0_269_2217)">
<path d="M7.20824 13.5766H7.2092C7.21 13.5766 7.2108 13.5764 7.2116 13.5764H18.3661C18.6407 13.5764 18.8821 13.3942 18.9576 13.1302L21.4185 4.51693C21.4716 4.33124 21.4344 4.13161 21.3183 3.97748C21.2019 3.82335 21.0201 3.73267 20.827 3.73267H5.78935L5.34956 1.7535C5.28691 1.472 5.03729 1.27173 4.7489 1.27173H1.0575C0.717674 1.27173 0.442261 1.54714 0.442261 1.88696C0.442261 2.22678 0.717674 2.5022 1.0575 2.5022H4.25543C4.3333 2.85291 6.36005 11.9734 6.47668 12.4982C5.82284 12.7824 5.36414 13.4343 5.36414 14.1916C5.36414 15.2093 6.19214 16.0374 7.20984 16.0374H18.3661C18.7059 16.0374 18.9813 15.7619 18.9813 15.4221C18.9813 15.0823 18.7059 14.8069 18.3661 14.8069H7.20984C6.87066 14.8069 6.5946 14.5308 6.5946 14.1916C6.5946 13.853 6.8697 13.5774 7.20824 13.5766ZM20.0114 4.96313L17.9019 12.3459H7.70331L6.06268 4.96313H20.0114Z" fill="black"/>
<path d="M6.5946 17.8828C6.5946 18.9005 7.42261 19.7285 8.44031 19.7285C9.45801 19.7285 10.286 18.9005 10.286 17.8828C10.286 16.8651 9.45801 16.0371 8.44031 16.0371C7.42261 16.0371 6.5946 16.8651 6.5946 17.8828ZM8.44031 17.2676C8.77949 17.2676 9.05554 17.5436 9.05554 17.8828C9.05554 18.222 8.77949 18.498 8.44031 18.498C8.10113 18.498 7.82507 18.222 7.82507 17.8828C7.82507 17.5436 8.10113 17.2676 8.44031 17.2676Z" fill="black"/>
<path d="M15.2899 17.8828C15.2899 18.9005 16.1179 19.7285 17.1356 19.7285C18.1533 19.7285 18.9813 18.9005 18.9813 17.8828C18.9813 16.8651 18.1533 16.0371 17.1356 16.0371C16.1179 16.0371 15.2899 16.8651 15.2899 17.8828ZM17.1356 17.2676C17.4748 17.2676 17.7509 17.5436 17.7509 17.8828C17.7509 18.222 17.4748 18.498 17.1356 18.498C16.7964 18.498 16.5204 18.222 16.5204 17.8828C16.5204 17.5436 16.7964 17.2676 17.1356 17.2676Z" fill="black"/>
</g>
<defs>
<clipPath id="clip0_269_2217">
<rect width="21" height="21" fill="white" transform="translate(0.442261)"/>
</clipPath>
</defs>
</svg>
