<svg width="88" height="88" viewBox="0 0 88 88" fill="none" xmlns="http://www.w3.org/2000/svg">
<rect width="88" height="88" rx="44" fill="url(#paint0_linear_216_411)"/>
<path d="M36.0761 40.0874L36.1411 40.1521" stroke="#2C5E46" stroke-width="1.5" stroke-miterlimit="10"/>
<path d="M51.0298 40.0874L52.5252 39.1174C52.005 39.4407 51.4849 39.7641 51.0298 40.0874Z" stroke="#2C5E46" stroke-width="1.5" stroke-miterlimit="10"/>
<path d="M50.5747 27.8C49.2093 23.7904 46.9988 19.7808 43.618 17L42.2526 18.1641C39.3269 20.6216 37.3764 23.9198 36.1411 27.218V27.2826" stroke="#2C5E46" stroke-width="1.5" stroke-miterlimit="10"/>
<path d="M60.6522 20.2335C60.6522 20.2335 53.8255 22.691 50.6397 27.8C52.2001 32.2623 52.7202 36.6599 52.5252 39.1174C53.1103 38.7293 53.6955 38.3413 54.3456 37.9533L58.9618 34.9784C60.3921 31.8096 61.3023 27.218 60.6522 20.2335Z" stroke="#2C5E46" stroke-width="1.5" stroke-miterlimit="10"/>
<path d="M36.0761 40.0874C35.556 39.7641 35.0358 39.3761 34.5157 39.0527C34.7108 39.182 34.9058 39.3114 35.1659 39.5054L36.0761 40.0874Z" stroke="#2C5E46" stroke-width="1.5" stroke-miterlimit="10"/>
<path d="M64.8782 30.5808C62.7977 32.2623 60.7822 33.685 58.9618 34.9138C57.3364 36.0132 55.776 36.9832 54.3456 37.8886L52.5252 39.1174L51.0298 40.0874C46.9988 42.8036 44.3982 46.4898 43.683 50.9521C43.683 51.0814 43.4879 51.0814 43.4229 50.9521C42.6427 46.5545 40.1071 42.8683 36.2061 40.1521L36.1411 40.0874C35.816 39.8934 35.491 39.6347 35.1659 39.4407L34.5157 39.0527L32.6953 37.8886C31.2649 36.9832 29.7695 36.0132 28.1441 34.9138C26.3237 33.685 24.3082 32.2623 22.2277 30.5808C20.7973 42.4802 26.4537 48.818 29.5095 51.2754L57.7915 51.2108C60.7822 48.624 66.3086 42.3509 64.8782 30.5808Z" stroke="#2C5E46" stroke-width="1.5" stroke-miterlimit="10"/>
<path d="M34.4507 38.988C34.1256 36.4012 34.4507 31.8096 36.1411 27.2826C32.8253 22.497 26.4537 20.2335 26.4537 20.2335C25.8036 27.218 26.6488 31.8742 28.1441 34.9138L32.6953 37.8886C33.3454 38.2766 33.9306 38.6647 34.4507 38.988Z" stroke="#2C5E46" stroke-width="1.5" stroke-miterlimit="10"/>
<path d="M43.4229 49.982L43.683 17" stroke="#2C5E46" stroke-width="1.5" stroke-miterlimit="10"/>
<path d="M43.4229 50.9521C43.4229 50.9521 31.72 46.4252 27.8191 40.6048" stroke="#2C5E46" stroke-width="1.5" stroke-miterlimit="10" stroke-linecap="round" stroke-linejoin="round"/>
<path d="M44.0731 50.9521C44.0731 50.9521 55.776 46.4252 59.6769 40.6048" stroke="#2C5E46" stroke-width="1.5" stroke-miterlimit="10" stroke-linecap="round" stroke-linejoin="round"/>
<path d="M52.5252 38.6647C52.5252 38.6647 53.2403 29.6108 60.3271 20.8802" stroke="#2C5E46" stroke-width="1.5" stroke-miterlimit="10" stroke-linecap="round" stroke-linejoin="round"/>
<path d="M34.3207 38.6647C34.3207 38.6647 33.5405 28.9641 26.4537 20.2335" stroke="#2C5E46" stroke-width="1.5" stroke-miterlimit="10" stroke-linecap="round" stroke-linejoin="round"/>
<path d="M58.9618 51.2755H43.683H43.4229H29.4445H28.1441C28.1441 51.2755 26.5187 51.2755 26.5187 53.2156C26.5187 55.1557 28.1441 55.1557 28.1441 55.1557H43.4879H43.683H59.0268C59.0268 55.1557 60.6522 55.1557 60.6522 53.2156C60.6522 51.2755 58.9618 51.2755 58.9618 51.2755Z" stroke="#2C5E46" stroke-width="1.5" stroke-miterlimit="10" stroke-linecap="round" stroke-linejoin="round"/>
<path d="M31.655 65.8264C32.1101 68.8012 34.6457 71 37.6365 71H49.9245C52.9153 71 55.4509 68.8012 55.906 65.8264L57.4014 55.1557L30.0946 55.091L31.655 65.8264Z" stroke="#2C5E46" stroke-width="1.5" stroke-miterlimit="10" stroke-linecap="round" stroke-linejoin="round"/>
<defs>
<linearGradient id="paint0_linear_216_411" x1="0" y1="44" x2="88" y2="44" gradientUnits="userSpaceOnUse">
<stop stop-color="#E3E2E7"/>
<stop offset="1" stop-color="#F0EFF4"/>
</linearGradient>
</defs>
</svg>
