<svg width="18" height="17" viewBox="0 0 18 17" fill="none" xmlns="http://www.w3.org/2000/svg">
<path d="M8.83333 4.05506C9.57738 4.05506 10.2842 4.27827 10.9539 4.6503C11.6235 5.02232 12.1443 5.54315 12.5164 6.2128C12.8884 6.88244 13.1116 7.58929 13.1116 8.33333C13.1116 9.11458 12.8884 9.82143 12.5164 10.4911C12.1443 11.1607 11.6235 11.6815 10.9539 12.0536C10.2842 12.4256 9.57738 12.6116 8.83333 12.6116C8.05208 12.6116 7.34524 12.4256 6.67559 12.0536C6.00595 11.6815 5.48512 11.1607 5.11309 10.4911C4.74107 9.82143 4.55506 9.11458 4.55506 8.33333C4.55506 7.58929 4.74107 6.88244 5.11309 6.2128C5.48512 5.54315 6.00595 5.02232 6.67559 4.6503C7.34524 4.27827 8.05208 4.05506 8.83333 4.05506ZM8.83333 11.1235C9.57738 11.1235 10.247 10.8631 10.8051 10.3051C11.3259 9.78423 11.6235 9.11458 11.6235 8.33333C11.6235 7.58929 11.3259 6.91964 10.8051 6.36161C10.247 5.84077 9.57738 5.54315 8.83333 5.54315C8.05208 5.54315 7.38244 5.84077 6.86161 6.36161C6.30357 6.91964 6.04315 7.58929 6.04315 8.33333C6.04315 9.11458 6.30357 9.78423 6.86161 10.3051C7.38244 10.8631 8.05208 11.1235 8.83333 11.1235ZM14.3021 3.86905C14.3021 3.60863 14.1905 3.38542 14.0045 3.1622C13.7812 2.97619 13.558 2.86458 13.2976 2.86458C13 2.86458 12.7768 2.97619 12.5908 3.1622C12.3676 3.38542 12.2932 3.60863 12.2932 3.86905C12.2932 4.16667 12.3676 4.38988 12.5908 4.57589C12.7768 4.79911 13 4.87351 13.2976 4.87351C13.558 4.87351 13.7812 4.79911 13.9673 4.57589C14.1533 4.38988 14.2649 4.16667 14.3021 3.86905ZM17.1295 4.87351C17.1295 5.58036 17.1667 6.73363 17.1667 8.33333C17.1667 9.97024 17.1295 11.1235 17.0923 11.8304C17.0551 12.5372 16.9435 13.1324 16.7946 13.6533C16.5714 14.2857 16.1994 14.8437 15.753 15.2902C15.3065 15.7366 14.7485 16.0714 14.1533 16.2946C13.6324 16.4807 13 16.5923 12.2932 16.6295C11.5863 16.6667 10.433 16.6667 8.83333 16.6667C7.19643 16.6667 6.04315 16.6667 5.33631 16.6295C4.62946 16.5923 4.03423 16.4807 3.51339 16.2574C2.88095 16.0714 2.32292 15.7366 1.87649 15.2902C1.43006 14.8437 1.09524 14.2857 0.872024 13.6533C0.686012 13.1324 0.574405 12.5372 0.537202 11.8304C0.5 11.1235 0.5 9.97024 0.5 8.33333C0.5 6.73363 0.5 5.58036 0.537202 4.87351C0.574405 4.16667 0.686012 3.53423 0.872024 3.01339C1.09524 2.41815 1.43006 1.86012 1.87649 1.41369C2.32292 0.967262 2.88095 0.595238 3.51339 0.372024C4.03423 0.223214 4.62946 0.111607 5.33631 0.0744048C6.04315 0.0372024 7.19643 0 8.83333 0C10.433 0 11.5863 0.0372024 12.2932 0.0744048C13 0.111607 13.6324 0.223214 14.1533 0.372024C14.7485 0.595238 15.3065 0.967262 15.753 1.41369C16.1994 1.86012 16.5714 2.41815 16.7946 3.01339C16.9435 3.53423 17.0551 4.16667 17.1295 4.87351ZM15.3437 13.244C15.4926 12.8348 15.567 12.1652 15.6414 11.2351C15.6414 10.7143 15.6786 9.93304 15.6786 8.92857V7.73809C15.6786 6.73363 15.6414 5.95238 15.6414 5.43155C15.567 4.50149 15.4926 3.83185 15.3437 3.42262C15.0461 2.67857 14.4881 2.12054 13.744 1.82292C13.3348 1.67411 12.6652 1.5997 11.7351 1.5253C11.1771 1.5253 10.3958 1.4881 9.42857 1.4881H8.23809C7.23363 1.4881 6.45238 1.5253 5.93155 1.5253C5.00149 1.5997 4.33185 1.67411 3.92262 1.82292C3.14137 2.12054 2.62054 2.67857 2.32292 3.42262C2.17411 3.83185 2.0625 4.50149 2.0253 5.43155C1.9881 5.98958 1.9881 6.77083 1.9881 7.73809V8.92857C1.9881 9.93304 1.9881 10.7143 2.0253 11.2351C2.0625 12.1652 2.17411 12.8348 2.32292 13.244C2.62054 14.0253 3.17857 14.5461 3.92262 14.8437C4.33185 14.9926 5.00149 15.1042 5.93155 15.1414C6.45238 15.1786 7.23363 15.1786 8.23809 15.1786H9.42857C10.433 15.1786 11.2143 15.1786 11.7351 15.1414C12.6652 15.1042 13.3348 14.9926 13.744 14.8437C14.4881 14.5461 15.0461 13.9881 15.3437 13.244Z" fill="#050708"/>
</svg>
