<svg width="41" height="41" viewBox="0 0 41 41" fill="none" xmlns="http://www.w3.org/2000/svg">
<path d="M40.1518 14.6172L40.1826 14.6712L40.2298 14.7116C40.4625 14.9111 40.5463 15.128 40.498 15.3452L40.4948 15.3598L40.4927 15.3746C39.1751 25.0659 35.5714 32.1025 29.7321 36.3034L29.731 36.3042C24.6826 39.9643 19.2074 40.6413 15.6989 40.6413C14.6846 40.6413 13.8515 40.5884 13.2583 40.5307C12.9616 40.5018 12.7258 40.4718 12.5581 40.4467C12.4056 40.4239 12.3291 40.408 12.3099 40.404C12.3061 40.4032 12.3045 40.4029 12.3051 40.4031L12.2839 40.396L12.262 40.3916C11.8147 40.3022 11.513 39.8496 11.6025 39.4023C11.6919 38.955 12.1445 38.6533 12.5918 38.7428L12.6266 38.7498H12.6402L12.6448 38.7504L12.6657 38.7533C12.6821 38.7556 12.7029 38.7586 12.726 38.7618C12.7971 38.7717 12.8998 38.7856 13.0314 38.8013C13.2946 38.8326 13.6724 38.8712 14.1454 38.9007C15.0911 38.9598 16.4185 38.9828 17.972 38.8391C21.0767 38.5519 25.1011 37.5973 28.7832 34.9178C34.0619 31.122 37.3443 24.7743 38.6792 16.2053L38.7383 15.826L38.3558 15.7927C28.003 14.8906 20.3002 16.8135 15.614 21.5873L15.6135 21.5878C11.6746 25.6142 10.8506 30.7667 10.7638 33.5896L10.7417 34.3067L28.606 21.7486L28.6071 21.7479C29.0018 21.4754 29.5043 21.5662 29.775 21.9573C30.0483 22.3522 29.9577 22.8552 29.5663 23.1262L29.5635 23.1281L10.4991 36.5929C10.3344 36.6904 10.1961 36.7416 10.0449 36.7483L10.0382 36.7461L10.0357 36.7453C10.0215 36.7405 9.99702 36.7324 9.97242 36.7257C9.95858 36.7219 9.94069 36.7174 9.9205 36.7138C9.90113 36.7104 9.87274 36.7063 9.83927 36.7063H9.75368C9.56641 36.7063 9.36782 36.6423 9.23749 36.512L9.22171 36.4962L9.20408 36.4825C9.04279 36.357 6.86595 34.4287 4.71049 31.2193C2.55697 28.0128 0.444784 23.5573 0.360629 18.3689C0.276969 12.0819 3.20651 6.10038 9.14022 0.589732C9.44633 0.3157 9.86536 0.286382 10.1995 0.497141C10.4755 0.682469 16.9064 5.13913 18.0374 14.3546L18.0378 14.3583C18.0965 14.798 17.7702 15.2211 17.3195 15.2812L17.308 15.2827L17.2966 15.285C16.8949 15.3654 16.4607 15.0382 16.3968 14.5642C15.5684 7.94102 11.6909 3.93275 10.0317 2.49189L9.78248 2.27548L9.54612 2.50581C4.4924 7.42996 1.95103 12.7374 2.03838 18.2938C2.1258 25.053 6.08736 30.6095 8.50185 33.3257L9.08231 33.9787L9.12823 33.1063C9.29699 29.8992 10.267 24.6547 14.4568 20.423L14.4586 20.4211C19.5651 15.1891 27.9833 13.0479 39.5668 14.2396C39.8048 14.2706 40.0416 14.4244 40.1518 14.6172Z" fill="#2C5E46"/>
</svg>
