<svg width="21" height="21" viewBox="0 0 21 21" fill="none" xmlns="http://www.w3.org/2000/svg">
<path d="M5.85399 15.9065L5.85398 15.9065C5.36171 15.9783 4.99226 16.4081 4.99226 16.9225V16.9226C4.99162 17.1475 5.06515 17.3663 5.20146 17.5451C5.44169 17.8579 5.6883 18.1657 5.94114 18.4684L6.00967 18.5505H5.90276H4.61426H4.58997L4.57496 18.5314C4.49383 18.4282 4.41223 18.3231 4.32966 18.216C4.04324 17.8445 3.89226 17.3862 3.89226 16.923C3.89226 15.8795 4.64568 14.9717 5.69503 14.8185C9.22778 14.3023 11.6846 14.3489 15.1966 14.835C15.1966 14.835 15.1966 14.835 15.1966 14.835L15.1898 14.8845C16.2033 15.0245 16.9423 15.897 16.9423 16.9095L5.85399 15.9065ZM5.85399 15.9065C9.27115 15.4073 11.6228 15.4501 15.0456 15.924L5.85399 15.9065ZM15.7108 17.564C15.8598 17.382 15.9423 17.149 15.9423 16.909C15.9439 16.6582 15.8547 16.4153 15.6912 16.2252C15.5277 16.035 15.3009 15.9105 15.0528 15.8745L15.7108 17.564ZM15.7108 17.564C15.4652 17.8641 15.2139 18.1595 14.9571 18.45L15.7108 17.564ZM11.5712 10.7254C11.2133 10.8737 10.8297 10.95 10.4423 10.95C9.65987 10.95 8.90953 10.6392 8.3563 10.086C7.80306 9.53273 7.49226 8.78239 7.49226 8C7.49226 7.21761 7.80306 6.46727 8.3563 5.91403C8.90953 5.3608 9.65987 5.05 10.4423 5.05C10.8297 5.05 11.2133 5.1263 11.5712 5.27456C11.9291 5.42281 12.2543 5.6401 12.5282 5.91403C12.8022 6.18797 13.0195 6.51317 13.1677 6.87108C13.316 7.22899 13.3923 7.6126 13.3923 8C13.3923 8.3874 13.316 8.77101 13.1677 9.12892C13.0195 9.48683 12.8022 9.81203 12.5282 10.086C12.2543 10.3599 11.9291 10.5772 11.5712 10.7254ZM10.4423 12.05C11.5164 12.05 12.5465 11.6233 13.306 10.8638C14.0656 10.1043 14.4923 9.07413 14.4923 8C14.4923 6.92587 14.0656 5.89574 13.306 5.13622C12.5465 4.37669 11.5164 3.95 10.4423 3.95C9.36813 3.95 8.338 4.37669 7.57848 5.13622C6.81896 5.89574 6.39226 6.92587 6.39226 8C6.39226 9.07413 6.81896 10.1043 7.57848 10.8638C8.338 11.6233 9.36813 12.05 10.4423 12.05Z" fill="black" stroke="black" stroke-width="0.1"/>
<path d="M19.3923 10.5C19.3923 15.4429 15.3851 19.45 10.4423 19.45C5.49938 19.45 1.49226 15.4429 1.49226 10.5C1.49226 5.55711 5.49938 1.55 10.4423 1.55C15.3851 1.55 19.3923 5.55711 19.3923 10.5ZM10.4423 20.55C15.9929 20.55 20.4923 16.0506 20.4923 10.5C20.4923 4.94939 15.9929 0.45 10.4423 0.45C4.89165 0.45 0.392261 4.94939 0.392261 10.5C0.392261 16.0506 4.89165 20.55 10.4423 20.55Z" fill="black" stroke="black" stroke-width="0.1"/>
</svg>
