<svg width="25" height="25" viewBox="0 0 25 25" fill="none" xmlns="http://www.w3.org/2000/svg">
<path d="M18.2107 16.3537L22.261 20.406C22.3786 20.5277 22.4437 20.6908 22.4422 20.8601C22.4408 21.0293 22.3729 21.1912 22.2531 21.3109C22.1334 21.4306 21.9715 21.4985 21.8022 21.5C21.6329 21.5014 21.4698 21.4364 21.348 21.3188L17.2977 17.2652C15.6496 18.677 13.5186 19.3957 11.3519 19.2704C9.18521 19.1452 7.15124 18.1859 5.6768 16.5936C4.20235 15.0014 3.40205 12.9001 3.44382 10.7307C3.48559 8.56127 4.36618 6.49233 5.90082 4.95802C7.43546 3.42372 9.50486 2.54332 11.6748 2.50156C13.8447 2.4598 15.9464 3.25993 17.539 4.73405C19.1315 6.20817 20.0911 8.24169 20.2164 10.4079C20.3416 12.5741 19.6228 14.7047 18.2107 16.3524V16.3537ZM11.8364 17.9934C13.7202 17.9934 15.5267 17.2453 16.8588 15.9136C18.1908 14.5818 18.9391 12.7756 18.9391 10.8923C18.9391 9.00899 18.1908 7.20279 16.8588 5.87108C15.5267 4.53936 13.7202 3.79121 11.8364 3.79121C9.95267 3.79121 8.14608 4.53936 6.81408 5.87108C5.48207 7.20279 4.73376 9.00899 4.73376 10.8923C4.73376 12.7756 5.48207 14.5818 6.81408 15.9136C8.14608 17.2453 9.95267 17.9934 11.8364 17.9934Z" fill="black"/>
</svg>
