<svg width="88" height="88" viewBox="0 0 88 88" fill="none" xmlns="http://www.w3.org/2000/svg">
<rect width="88" height="88" rx="44" fill="url(#paint0_linear_216_371)"/>
<path d="M69.3951 26.4416C69.3951 26.4416 56.0864 34.3766 50.037 36.8182C43.9876 39.2597 39.7531 44.1429 36.1235 49.026C33.7037 52.6883 33.7037 53.9091 33.7037 53.9091C33.7037 53.9091 24.6296 59.4026 28.2593 69.7792C28.2593 69.7792 34.9136 64.8961 33.7037 53.9091" stroke="#2C5E46" stroke-width="1.5" stroke-miterlimit="10" stroke-linecap="round" stroke-linejoin="round"/>
<path d="M21 44.1429C21 44.1429 27.6543 35.5974 39.7531 44.1429C37.3333 45.974 31.284 49.026 21 44.1429Z" stroke="#2C5E46" stroke-width="1.5" stroke-miterlimit="10" stroke-linecap="round" stroke-linejoin="round"/>
<path d="M40.6605 43.5935C40.6605 43.5935 52.4568 55.1299 42.1728 70.3896C36.1235 59.4026 35.5185 50.9792 40.6605 43.5935Z" stroke="#2C5E46" stroke-width="1.5" stroke-miterlimit="10" stroke-linecap="round" stroke-linejoin="round"/>
<path d="M47.0123 38.039C47.0123 38.039 37.9383 43.5325 21.6049 31.3247C27.0494 24.6104 41.5679 28.2727 47.0123 38.039Z" stroke="#2C5E46" stroke-width="1.5" stroke-miterlimit="10" stroke-linecap="round" stroke-linejoin="round"/>
<path d="M35.216 50.2468C35.216 50.2468 34.1272 50.8571 31.8889 50.8571" stroke="#2C5E46" stroke-width="1.5" stroke-miterlimit="10" stroke-linecap="round" stroke-linejoin="round"/>
<path d="M46.5284 38.6494C46.5284 38.6494 45.1975 42.9221 46.4074 44.7532" stroke="#2C5E46" stroke-width="1.5" stroke-miterlimit="10" stroke-linecap="round" stroke-linejoin="round"/>
<path d="M58.5062 32.6675C58.5062 32.6675 43.3827 36.2078 42.1728 24C42.1728 24 48 26 51.8518 27.0519C55.7037 28.1039 58.5062 32.6675 58.5062 32.6675Z" stroke="#2C5E46" stroke-width="1.5" stroke-miterlimit="10" stroke-linecap="round" stroke-linejoin="round"/>
<path d="M63.9506 29.4935C63.9506 29.4935 61.5309 28.2727 60.9259 27.6623" stroke="#2C5E46" stroke-width="1.5" stroke-miterlimit="10" stroke-linecap="round" stroke-linejoin="round"/>
<path d="M62.9222 30.287C62.9222 30.287 62.1358 33.1558 63.3457 34.3766" stroke="#2C5E46" stroke-width="1.5" stroke-miterlimit="10" stroke-linecap="round" stroke-linejoin="round"/>
<path d="M57.2358 33.4C57.2358 33.4 53.0617 41.0909 51.8519 46.5844C50.642 52.0779 51.8519 56.3506 53.0617 57.5714C56.0864 55.7403 66.3099 45.3026 57.2358 33.4Z" stroke="#2C5E46" stroke-width="1.5" stroke-miterlimit="10" stroke-linecap="round" stroke-linejoin="round"/>
<path d="M47.0123 38.039C47.0123 38.039 39.1481 33.7662 34.3086 33.7662" stroke="#2C5E46" stroke-width="1.5" stroke-miterlimit="10" stroke-linecap="round" stroke-linejoin="round"/>
<path d="M57.2963 34.3766C57.2963 34.3766 58.5062 43.5325 56.0864 47.8052" stroke="#2C5E46" stroke-width="1.5" stroke-miterlimit="10" stroke-linecap="round" stroke-linejoin="round"/>
<path d="M40.6 43.8987C40.6 43.8987 42.1728 55.1299 42.1728 59.4026" stroke="#2C5E46" stroke-width="1.5" stroke-miterlimit="10" stroke-linecap="round" stroke-linejoin="round"/>
<path d="M47.0123 47.1948C47.6805 47.1948 48.2222 46.6482 48.2222 45.974C48.2222 45.2998 47.6805 44.7532 47.0123 44.7532C46.3441 44.7532 45.8025 45.2998 45.8025 45.974C45.8025 46.6482 46.3441 47.1948 47.0123 47.1948Z" stroke="#2C5E46" stroke-width="1.5" stroke-miterlimit="10" stroke-linecap="round" stroke-linejoin="round"/>
<path d="M30.679 52.0779C31.3472 52.0779 31.8889 51.5314 31.8889 50.8571C31.8889 50.1829 31.3472 49.6364 30.679 49.6364C30.0108 49.6364 29.4691 50.1829 29.4691 50.8571C29.4691 51.5314 30.0108 52.0779 30.679 52.0779Z" stroke="#2C5E46" stroke-width="1.5" stroke-miterlimit="10" stroke-linecap="round" stroke-linejoin="round"/>
<path d="M63.9506 36.8182C64.6188 36.8182 65.1605 36.2716 65.1605 35.5974C65.1605 34.9232 64.6188 34.3766 63.9506 34.3766C63.2824 34.3766 62.7407 34.9232 62.7407 35.5974C62.7407 36.2716 63.2824 36.8182 63.9506 36.8182Z" stroke="#2C5E46" stroke-width="1.5" stroke-miterlimit="10" stroke-linecap="round" stroke-linejoin="round"/>
<path d="M60.2099 27.4416C60.8781 27.4416 61.4198 26.895 61.4198 26.2208C61.4198 25.5466 60.8781 25 60.2099 25C59.5417 25 59 25.5466 59 26.2208C59 26.895 59.5417 27.4416 60.2099 27.4416Z" stroke="#2C5E46" stroke-width="1.5" stroke-miterlimit="10" stroke-linecap="round" stroke-linejoin="round"/>
<defs>
<linearGradient id="paint0_linear_216_371" x1="0" y1="44" x2="88" y2="44" gradientUnits="userSpaceOnUse">
<stop stop-color="#E3E2E7"/>
<stop offset="1" stop-color="#F0EFF4"/>
</linearGradient>
</defs>
</svg>
