<svg width="49" height="39" viewBox="0 0 49 39" fill="none" xmlns="http://www.w3.org/2000/svg">
<path d="M46.8177 28.1007C47.4104 25.4194 47.0033 20.9067 44.6205 18.5953C42.7656 16.8133 40.457 16.2248 38.0452 16.9013C35.9319 12.7309 32.482 10.0304 28.7626 9.6523C28.5687 9.63305 28.3707 9.62067 28.1727 9.61792C27.7038 9.6083 27.2253 9.64267 26.7414 9.7128C26.1308 9.80217 25.5135 9.95067 24.9057 10.1459C24.4492 10.293 23.9982 10.4663 23.5582 10.6615C21.7487 11.4659 20.1276 12.6374 19.1348 13.8392C18.9011 13.8433 18.6646 13.857 18.4254 13.8832C15.2161 14.2187 13.0972 17.5407 12.6448 20.0514C12.3863 20.116 12.1278 20.1972 11.8693 20.292C10.8628 20.6647 9.9801 21.2435 9.2651 21.9778C8.9406 22.3105 8.65185 22.6735 8.40297 23.0654C8.15822 23.4477 7.95197 23.8547 7.78835 24.285C7.74435 24.3964 7.70447 24.5092 7.66735 24.6233C7.55322 24.9753 7.46797 25.3342 7.4116 25.6958C7.35247 26.0698 7.32497 26.4465 7.3291 26.8233C4.84172 28.1777 3.56572 31.3828 3.97547 33.569C4.54335 36.594 6.86847 38.3307 10.3527 38.3334C14.7692 38.3375 19.2174 38.3389 23.6545 38.3389C28.7255 38.3389 33.7786 38.3375 38.7423 38.3348H41.8031C42.2019 38.3348 42.5346 38.3142 42.8495 38.2702C45.6339 37.8838 47.6455 36.3122 48.3701 33.9582C49.0219 31.8365 48.5007 29.8675 46.8177 28.1007ZM46.925 33.5127C46.3805 35.2823 44.8199 36.4703 42.6418 36.7714C42.3971 36.8058 42.1303 36.8223 41.8031 36.8223H38.741C29.4377 36.8264 19.8168 36.8292 10.3541 36.8209C8.77422 36.8195 6.03935 36.3589 5.46185 33.2885C5.1896 31.8365 6.01185 29.6709 7.50372 28.5132C7.62885 28.9394 7.7691 29.2873 7.93822 29.6434C8.05785 29.917 8.19535 30.1865 8.34935 30.4492C8.38647 30.5179 8.4401 30.6032 8.50747 30.7063C8.53085 30.7434 8.5556 30.7792 8.57897 30.8163C8.60235 30.8507 8.62847 30.8892 8.6546 30.9277C8.65597 30.929 8.65735 30.9304 8.65872 30.9332C8.66835 30.9483 8.67935 30.9634 8.69035 30.9799C8.71235 31.0115 8.73297 31.0432 8.7536 31.0734C8.78935 31.1271 8.82235 31.1807 8.84847 31.2302C9.00797 31.523 9.18947 31.8558 9.64735 31.8599L10.0942 31.8627L10.3128 31.4749C10.5383 31.0775 10.3417 30.7558 10.1671 30.4725C10.1327 30.4162 10.0805 30.3364 10.02 30.247C9.98147 30.1879 9.94297 30.1315 9.9086 30.082C9.86735 30.0202 9.81922 29.9487 9.77797 29.8854C9.73947 29.8263 9.70235 29.7658 9.6666 29.7067C9.53322 29.4537 9.42047 29.2378 9.32147 29.0329C8.95435 28.1887 8.79485 27.2894 8.85397 26.4012C8.88285 25.9584 8.96672 25.5184 9.1056 25.0908C9.1276 25.0234 9.15097 24.9574 9.17572 24.8914C9.27747 24.615 9.40122 24.3497 9.5456 24.098C9.77522 23.6979 10.0543 23.3308 10.3788 23.0049C10.9343 22.4425 11.6191 21.9998 12.3946 21.711C12.9473 21.5062 13.4918 21.392 14.035 21.37C14.0638 21.3714 14.0927 21.3728 14.1202 21.3742C14.6221 21.3907 15.0923 21.447 15.5323 21.5447C16.015 21.6753 16.499 21.8815 16.9857 22.1593C17.027 22.184 17.0778 22.2198 17.1315 22.2569C17.1713 22.2844 17.2098 22.3119 17.2497 22.338C17.5618 22.5457 18.3923 23.097 18.8626 22.426C19.0125 22.2129 19.1555 21.7042 18.6192 21.3082C17.8368 20.7279 16.9376 20.3195 15.9338 20.0872C15.3715 19.9332 14.805 19.8562 14.2371 19.8548C14.7417 17.949 16.3367 15.6225 18.5835 15.3874C19.3507 15.3063 20.0616 15.3558 20.723 15.5373C21.8835 15.98 22.6012 16.5067 22.6108 16.5135L22.6122 16.5122C22.9821 16.7652 23.2942 16.6552 23.451 16.563L23.8937 16.3032L23.8153 15.7958C23.7934 15.6514 23.7727 15.5194 23.5087 15.3022L23.5115 15.2994L23.4798 15.2747C22.7813 14.7315 22.0224 14.341 21.2097 14.1059C21.1506 14.0839 21.0901 14.0605 21.0268 14.0385C21.9316 13.208 23.099 12.4889 24.3227 11.9733C24.7586 11.789 25.2027 11.6309 25.6441 11.503C25.9837 11.404 26.3233 11.3229 26.6561 11.2624C27.1277 11.1758 27.587 11.1304 28.0228 11.129C28.2236 11.129 28.4202 11.1387 28.61 11.1579C31.7133 11.4728 34.6297 13.7305 36.5176 17.2423C35.3282 17.9834 34.4977 18.8813 33.9285 19.7654C33.8185 19.9318 33.7153 20.105 33.6218 20.2838C32.8188 21.766 32.7157 23.1108 32.8244 23.4807L33.0058 24.0829L33.6273 24.021C33.9395 23.9894 34.2722 23.7543 34.3121 23.2992C34.517 20.9905 35.6953 19.3997 37.8142 18.5719C39.984 17.7235 41.9213 18.0989 43.57 19.6843C45.2915 21.3535 45.7714 24.7965 45.4537 27.134C45.3437 27.0859 45.231 27.0405 45.1155 26.9993C44.7745 26.8522 44.395 26.7229 44.0155 26.6569C43.9412 26.6445 43.8683 26.6322 43.7955 26.6198C43.1423 26.4768 42.6143 26.4122 42.492 26.3984L42.4452 26.3957C41.9543 26.3737 41.6587 26.7174 41.6216 27.0735C41.6037 27.2399 41.6078 27.794 42.3902 27.926C42.4837 27.9412 42.6157 27.9618 42.7738 27.9879C42.9828 28.0196 43.2372 28.0608 43.5053 28.1048C43.8518 28.1832 44.1997 28.278 44.5105 28.3867C44.9285 28.5654 45.3093 28.7937 45.5019 28.9215C46.991 30.3667 47.4433 31.8269 46.925 33.5127Z" fill="#2C5E46"/>
<path d="M28.0229 6.14464C27.3615 6.11301 26.6987 6.10201 26.036 6.07863C24.2306 6.01401 22.7979 5.42689 22.2492 3.49226C22.0567 2.81301 21.7309 2.17363 21.4861 1.50676C21.1492 0.592384 20.7835 0.475509 19.9667 0.980134C18.9685 1.59476 17.984 2.26163 16.9156 2.72501C16.4 2.94913 15.6204 2.94776 15.1089 2.71951C14.0199 2.23413 13.0202 1.54938 12.0014 0.916884C11.2864 0.472759 10.9481 0.59101 10.6222 1.39126C10.1699 2.49951 9.69273 3.59951 9.19223 4.68713C8.85673 5.41451 8.24761 5.78026 7.44598 5.84351C6.34873 5.93151 5.25286 6.04563 4.15561 6.12813C3.33336 6.19001 3.08036 6.52138 3.27561 7.32576C3.52723 8.36938 3.77198 9.41576 4.01948 10.4608C4.23261 11.3669 4.05386 12.1603 3.34023 12.7983C2.53723 13.5174 1.74523 14.2503 0.927107 14.9501C0.166732 15.6019 0.172232 16.0226 0.927107 16.6483C1.77548 17.3523 2.60186 18.0838 3.40623 18.8373C4.09511 19.4821 4.23261 20.2975 4.00436 21.2009C3.74173 22.2431 3.49836 23.2909 3.25636 24.3386C3.09823 25.0234 3.28386 25.3108 3.97823 25.3823C4.92836 25.4813 5.88398 25.5349 6.83686 25.6174C7.03486 25.6339 7.22598 25.6586 7.41161 25.6958C7.97261 25.803 8.46898 26.012 8.85398 26.4011C8.88286 25.9584 8.96673 25.5184 9.10561 25.0908C9.12761 25.0234 9.15098 24.9574 9.17573 24.8914C8.77148 24.5683 8.30123 24.3895 7.78836 24.285C6.84648 24.0884 5.76298 24.1351 4.69461 23.9715C6.34736 20.4433 5.30236 17.8115 2.30073 16.0034C3.36636 14.6916 4.57361 13.6095 5.25286 12.2634C5.98848 10.8045 5.11123 9.20951 4.89261 7.78088C6.37486 7.39726 8.12111 7.36426 9.28436 6.52551C10.4545 5.68126 11.0457 4.03263 11.8597 2.78276C13.1316 3.27913 14.5616 4.26913 15.993 4.27326C17.4354 4.27601 18.8791 3.29701 20.2266 2.78413C20.9787 3.96388 21.5562 5.61114 22.7167 6.47876C23.8511 7.32714 25.5809 7.38076 26.9875 7.76576C26.949 8.37626 26.828 9.04176 26.7414 9.71276C26.6726 10.2339 26.6259 10.7578 26.6561 11.2624C27.1277 11.1758 27.587 11.1304 28.0229 11.129C27.9747 10.6615 28.0201 10.1596 28.1727 9.61788C28.2002 9.51201 28.2332 9.40614 28.2704 9.29751C28.5302 8.53989 28.6609 7.73689 28.8712 6.86513C28.8506 6.41276 28.5316 6.16938 28.0229 6.14464Z" fill="#2C5E46"/>
<path d="M24.9057 10.1459C23.0137 7.20477 19.6779 5.2344 16.0053 5.25777C10.4022 5.29215 5.54016 9.7169 5.46866 15.7972C5.43704 18.587 6.56866 21.1596 8.40291 23.0654C8.75766 23.4353 9.13991 23.7804 9.54554 24.098C9.77516 23.6979 10.0543 23.3308 10.3788 23.0049C9.98004 22.6955 9.60604 22.3518 9.26504 21.9778C7.83641 20.4199 6.93991 18.3478 6.88766 15.9951C6.76941 10.6931 11.157 6.64927 16.0809 6.65615C19.0399 6.66027 21.8779 8.26902 23.5582 10.6615C23.851 11.0768 24.1068 11.5154 24.3227 11.9733C24.7585 11.789 25.2027 11.6309 25.644 11.503C25.4323 11.0314 25.1848 10.5776 24.9057 10.1459Z" fill="#2C5E46"/>
</svg>
